<svg xmlns="http://www.w3.org/2000/svg" xmlns:xlink="http://www.w3.org/1999/xlink" id="Layer_1" x="0px" y="0px" viewBox="0 0 108 31.5" style="enable-background:new 0 0 108 31.5;" xml:space="preserve"><style type="text/css">	.st0{fill:#0C192D;}	.st1{fill:#3C6FB6;}</style><g>	<path class="st0" d="M36.2,0h-1c-0.1,0-0.2,0.1-0.2,0.2v31.1c0,0.1,0.1,0.2,0.2,0.2h1c0.1,0,0.2-0.1,0.2-0.2V0.2  C36.4,0.1,36.3,0,36.2,0z"/>	<g>		<path class="st1" d="M11.9,17L11,14.6H4.5L3.6,17c0,0.1-0.1,0.1-0.2,0.1H0.2C0.1,17.1,0,17,0,16.9L5.7,2.2C5.7,2.1,5.8,2,5.9,2   h3.8c0.1,0,0.1,0,0.2,0.1l5.7,14.7c0,0.1,0,0.3-0.2,0.3h-3.3C12,17.1,11.9,17.1,11.9,17z M7.8,5.3l-2.4,6.5h4.7L7.8,5.3z"/>		<path class="st1" d="M17,2.2C17,2.1,17.1,2,17.2,2H23c4.7,0,8,3,8,7.6s-3.3,7.5-8,7.5h-5.8c-0.1,0-0.2-0.1-0.2-0.2V2.2z M27.7,9.6   c0-2.7-1.6-4.7-4.7-4.7h-2.7v9.4H23C26,14.3,27.7,12.2,27.7,9.6L27.7,9.6z"/>		<path class="st0" d="M54.8,16.9V6.6L50.5,17c0,0.1-0.1,0.1-0.2,0.1h-1.2c-0.1,0-0.1,0-0.2-0.1L44.8,6.6v10.4   c0,0.1-0.1,0.2-0.2,0.2h-2.8c-0.1,0-0.2-0.1-0.2-0.2V2.2c0-0.1,0.1-0.2,0.2-0.2H46c0.1,0,0.1,0,0.2,0.1l3.6,9l3.6-9   c0-0.1,0.1-0.1,0.2-0.1h4.2C57.9,2,58,2.1,58,2.2v14.7c0,0.1-0.1,0.2-0.2,0.2h-2.9C54.8,17.1,54.8,17,54.8,16.9z"/>		<path class="st0" d="M71.4,17l-0.9-2.4H64L63.1,17c0,0.1-0.1,0.1-0.2,0.1h-3.3c-0.1,0-0.2-0.1-0.2-0.3l5.7-14.7   c0-0.1,0.1-0.1,0.2-0.1h3.8c0.1,0,0.1,0,0.2,0.1L75,16.9c0,0.1,0,0.3-0.2,0.3h-3.3C71.5,17.1,71.4,17.1,71.4,17L71.4,17z    M67.2,5.3l-2.4,6.5h4.7L67.2,5.3z"/>		<path class="st0" d="M78.5,16.9V4.9h-4.2c-0.1,0-0.2-0.1-0.2-0.2V2.2c0-0.1,0.1-0.2,0.2-0.2H86c0.1,0,0.2,0.1,0.2,0.2v2.5   c0,0.1-0.1,0.2-0.2,0.2h-4.2v12.1c0,0.1-0.1,0.2-0.2,0.2h-2.9C78.6,17.1,78.5,17,78.5,16.9L78.5,16.9z"/>		<path class="st0" d="M88.2,16.9V2.2c0-0.1,0.1-0.2,0.2-0.2h2.8c0.1,0,0.2,0.1,0.2,0.2v14.7c0,0.1-0.1,0.2-0.2,0.2h-2.8   C88.3,17.1,88.2,17,88.2,16.9z"/>		<path class="st0" d="M93.7,9.6c0-4.6,3.5-7.8,8-7.8c3.2,0,5.1,1.7,6.2,3.5c0.1,0.1,0,0.2-0.1,0.3l-2.4,1.2c-0.1,0-0.2,0-0.2-0.1   c-0.7-1.1-2-2-3.5-2c-2.7,0-4.7,2.1-4.7,5s2,5,4.7,5c1.5,0,2.8-0.9,3.5-2c0-0.1,0.2-0.1,0.2-0.1l2.4,1.2c0.1,0,0.1,0.2,0.1,0.3   c-1.1,1.8-3,3.5-6.2,3.5C97.2,17.4,93.7,14.2,93.7,9.6L93.7,9.6z"/>		<g>			<path class="st0" d="M44.5,20.4h-2.7c-0.1,0-0.2,0.1-0.2,0.2v8c0,0.1,0.1,0.2,0.2,0.2h2.7c2.7,0,4.4-1.6,4.4-4.2    C49,22.1,47.2,20.4,44.5,20.4z M44.5,27.4h-1.2v-5.5h1.2c1.8,0,2.8,1,2.8,2.8C47.2,26.4,46.2,27.4,44.5,27.4z"/>			<path class="st0" d="M51.7,20.4h-1.3c-0.1,0-0.2,0.1-0.2,0.2v8c0,0.1,0.1,0.2,0.2,0.2h1.3c0.1,0,0.2-0.1,0.2-0.2v-8    C51.9,20.5,51.8,20.4,51.7,20.4z"/>			<path class="st0" d="M64.3,20.4H63c-0.1,0-0.2,0.1-0.2,0.2v8c0,0.1,0.1,0.2,0.2,0.2h1.3c0.1,0,0.2-0.1,0.2-0.2v-8    C64.5,20.5,64.4,20.4,64.3,20.4z"/>			<path class="st0" d="M71.7,20.4h-5.9c-0.1,0-0.1,0.1-0.1,0.2c0,0,0,0,0,0v1c0,0,0,0,0,0c0,0.1,0.1,0.2,0.1,0.2H68v6.8    c0,0.1,0.1,0.2,0.2,0.2h1.3c0.1,0,0.2-0.1,0.2-0.2v-6.8h2.1c0.1,0,0.1-0.1,0.1-0.2v-1C71.9,20.5,71.8,20.4,71.7,20.4z"/>			<path class="st0" d="M77.4,20.4h-1.7c-0.1,0-0.2,0.1-0.2,0.1l-2.9,8c0,0.1,0.1,0.3,0.2,0.3h1.3c0.1,0,0.2-0.1,0.2-0.1l0.5-1.5    h3.3l0.5,1.5c0,0.1,0.1,0.1,0.2,0.1h1.3c0.1,0,0.2-0.1,0.2-0.3l-2.9-8C77.6,20.5,77.5,20.4,77.4,20.4z M75.4,25.9l1.2-3.5    l1.2,3.5H75.4z"/>			<path class="st0" d="M83.4,27.5v-6.9c0-0.1-0.1-0.2-0.2-0.2h-1.3c-0.1,0-0.2,0.1-0.2,0.2v8c0,0.1,0.1,0.2,0.2,0.2h4.2v-1.3H83.4z    "/>			<path class="st0" d="M61.4,24.2h-0.9h-3.4c0,0-0.1,0.1-0.1,0.2v1c0,0.1,0,0.2,0.1,0.2h2.8c-0.3,1.2-1.1,1.9-2.4,1.9    c-1.6,0-2.6-1.1-2.6-2.8c0-1.7,1-2.7,2.5-2.7c0.8,0,1.5,0.3,1.9,1c0,0.1,0.1,0.1,0.2,0.1h1.7c0.1,0,0.1-0.1,0-0.2    c-0.6-1.5-2-2.4-3.8-2.4c-2.4,0-4.3,1.8-4.3,4.3c0,2.5,1.9,4.3,4.3,4.3c1.3,0,2.4-0.5,3.1-1.3c0.7-0.7,1-1.8,1-2.8v-0.4    C61.6,24.3,61.5,24.2,61.4,24.2z"/>		</g>	</g></g></svg>